<?xml version="1.0" standalone="no"?><!DOCTYPE svg PUBLIC "-//W3C//DTD SVG 1.1//EN" "http://www.w3.org/Graphics/SVG/1.1/DTD/svg11.dtd"><svg t="1584715011453" class="icon" viewBox="0 0 1024 1024" version="1.1" xmlns="http://www.w3.org/2000/svg" p-id="4047" xmlns:xlink="http://www.w3.org/1999/xlink" width="200" height="200"><defs><style type="text/css"></style></defs><path d="M1.768476 0.955521l1014.774775 0 0 1014.774775-1014.774775 0 0-1014.774775Z" p-id="4048" data-spm-anchor-id="a313x.7781069.0.i10" class="" fill="#0f4c81"></path><path d="M676.796852 797.586561C686.899006 787.320685 691.769314 772.976117 690.017393 758.649016L653.70021 461.648244 783.219061 332.568959C806.372941 309.493482 808.151667 272.97666 788.48786 247.818897 787.06198 245.95277 785.506409 244.150693 783.792166 242.441048 783.718264 242.365355 783.650158 242.286023 783.576256 242.21033L783.576256 242.21033C782.935045 241.561116 782.277893 240.939559 781.616396 240.323825 781.50192 240.165889 781.384545 240.011591 781.253405 239.879855 772.461931 230.884023 761.367891 225.802396 749.899994 224.3766 730.12968 220.750611 708.97406 226.556416 693.625567 241.85297L564.706628 370.333261 267.088307 333.229817C252.828061 331.451757 238.542457 336.326684 228.309887 346.460823L215.412487 359.235488C207.801999 366.773502 209.769104 379.585285 219.28801 384.468218L437.952594 496.657026 328.346066 605.892349 197.883875 597.157802 175.585668 619.260186 186.237017 625.743591 181.70869 630.405995 299.316953 695.012961 318.287383 706.686436 329.918301 725.791665 394.127081 844.057027 398.730034 839.468861 405.148667 850.15396 427.162857 827.80048 418.558312 695.993332 527.751856 587.169955 638.953079 806.596952C643.802374 816.165579 656.553418 818.158345 664.068268 810.522804L676.796852 797.586561 676.796852 797.586561Z" p-id="4049" data-spm-anchor-id="a313x.7781069.0.i11" class="selected" fill="#e6e6e6"></path></svg>